# xmcd
#
# Track frame offsets:
#	150
#	12755
#	28230
#	42315
#	59095
#	76076
#	90633
#	107209
#	122674
#	156213
#	160274
#	178679
#	197582
#	213672
#	229557
#	240279
#	256979
#	270062
#
# Disc length: 3785
#
# Revision: 2
# Processed by: cddbd v1.5.1PL0 Copyright (c) Steve Scherf et al.
# Submitted via: EasyCDDAExtractor 7.0.5.4
# Normalized: r1:DSETVAR1
#
DISCID=e40ec712
DTITLE=Various Artist - RADIO CITY SOUND
DYEAR=2002
DGENRE=GOSPEL
TTITLE0=J. CHARLES PHILLIPS - I BELIEVE HE'S COMING BACK
TTITLE1=THE PHILLIPS FAMILY - BEYOND CALVARY'S HILL
TTITLE2=THE HEBERTS - MIDNIGHT TRAIN
TTITLE3=ROBERT WARD - LORD SET MY FEET ON THE SOLID ROCK
TTITLE4=DAVID HOUSE - IT'S ME AGAIN LORD
TTITLE5=DALE and GRACE - PRAYER IS THE KEY TO HEAVEN
TTITLE6=ROBERT WARD - JESUS IS THE ANSWER
TTITLE7=ROBERT WARD - WHAT A DAY THAT WILL BE
TTITLE8=CHRISTINE PHILLIPS - THE SWEET 'N LOW STORY
TTITLE9=JUDGE JODY - THE SWEET 'N LOW COURT
TTITLE10=THE HEBERTS - THE CROSS PAID IT ALL
TTITLE11=THE PHILLIPS FAMILY - A SWEET ANNOINTING
TTITLE12=THE PHILLIPS FAMILY - L;ET'S HAVE CHURCH
TTITLE13=THE PHILLIPS FAMILY - ALL FIRED UP
TTITLE14=THE PHILLIPS FAMILY - HAVE YOU BEEN TO THE RIVER
TTITLE15=THE PHILLIPS FAMILY - DOWN AT THE BRUSH ARBOR
TTITLE16=THE PHILLIPS FAMILY - JACOB'S WELL
TTITLE17=THE PHILLIPS FAMILY - PUT ON YOUR ARMOR
EXTD=
EXTT0=
EXTT1=
EXTT2=
EXTT3=
EXTT4=
EXTT5=
EXTT6=
EXTT7=
EXTT8=
EXTT9=
EXTT10=
EXTT11=
EXTT12=
EXTT13=
EXTT14=
EXTT15=
EXTT16=
EXTT17=
PLAYORDER=
